inDegrees=no
num_controls=7
num_derivatives=13
num_iterations=129
num_multipliers=7
num_parameters=0
num_slacks=7
num_states=26
objective=0.478779
objective_accelerations=0.010831
objective_balance=0.000375
objective_effort=0.007668
objective_height=0.450834
objective_ligament=0.009070
solver_duration=1683.813663
status=Solve_Succeeded
success=true
DataType=double
version=3
OpenSimVersion=4.5
endheader
time	/jointset/ground_pelvis/pelvis_tilt/value	/jointset/ground_pelvis/pelvis_tx/value	/jointset/ground_pelvis/pelvis_ty/value	/jointset/hip_l/hip_flexion_l/value	/jointset/hip_l/hip_adduction_l/value	/jointset/hip_l/hip_rotation_l/value	/jointset/back/lumbar_extension/value	/jointset/patellofemoral_l/patellar_flexion_l/value	/jointset/knee_l/knee_flexion_l/value	/jointset/knee_l/knee_adduction_l/value	/jointset/knee_l/knee_rotation_l/value	/jointset/ankle_l/ankle_angle_l/value	/jointset/subtalar_l/subtalar_angle_l/value	/jointset/ground_pelvis/pelvis_tilt/speed	/jointset/ground_pelvis/pelvis_tx/speed	/jointset/ground_pelvis/pelvis_ty/speed	/jointset/hip_l/hip_flexion_l/speed	/jointset/hip_l/hip_adduction_l/speed	/jointset/hip_l/hip_rotation_l/speed	/jointset/back/lumbar_extension/speed	/jointset/patellofemoral_l/patellar_flexion_l/speed	/jointset/knee_l/knee_flexion_l/speed	/jointset/knee_l/knee_adduction_l/speed	/jointset/knee_l/knee_rotation_l/speed	/jointset/ankle_l/ankle_angle_l/speed	/jointset/subtalar_l/subtalar_angle_l/speed	/forceset/tau_hip_flexion_l	/forceset/tau_hip_adduction_l	/forceset/tau_hip_rotation_l	/forceset/tau_knee_flexion_l	/forceset/tau_ankle_angle_l	/forceset/tau_subtalar_angle_l	/forceset/tau_lumbar_extension	lambda_cid13_p0	lambda_cid13_p1	lambda_cid13_p2	lambda_cid13_p3	lambda_cid13_p4	lambda_cid13_p5	lambda_cid14_p0	/jointset/ground_pelvis/pelvis_tilt/accel	/jointset/ground_pelvis/pelvis_tx/accel	/jointset/ground_pelvis/pelvis_ty/accel	/jointset/hip_l/hip_flexion_l/accel	/jointset/hip_l/hip_adduction_l/accel	/jointset/hip_l/hip_rotation_l/accel	/jointset/back/lumbar_extension/accel	/jointset/patellofemoral_l/patellar_flexion_l/accel	/jointset/knee_l/knee_flexion_l/accel	/jointset/knee_l/knee_adduction_l/accel	/jointset/knee_l/knee_rotation_l/accel	/jointset/ankle_l/ankle_angle_l/accel	/jointset/subtalar_l/subtalar_angle_l/accel	gamma_cid13_p0	gamma_cid13_p1	gamma_cid13_p2	gamma_cid13_p3	gamma_cid13_p4	gamma_cid13_p5	gamma_cid14_p0
0	0.05847477647456366	0.1026105829531182	0.9060884049794151	0.1266922784136757	-0.3412629533784245	-0.2521860286790004	-0.2144969558742783	0.205154507014188	0.2051545070141877	-0.1144962026968156	-0.1727375600817032	0.09024313228550125	0.1107056858122189	0	0	0	0	0	0	0	0	0	0	0	0	0	0.08528772379018319	-0.06150943800926702	-0.00821314732908439	-0.2375834021535088	0.2014331922111826	-0.04844661501660848	-0.01672316248820029	35.97819189129569	16.91434107834363	-5.460275042118393	-40.2466940094621	-447.0299013244612	-70.99869613562633	-26.25373405211412	1.443403416513157	0.7027602047733149	-0.1768239023553699	0.255223823888157	-0.2374003097932167	1.276917793379902	-2.493335356510827	4.713802295331507	4.713802295331879	0.8697759746092661	-0.2291158680130322	3.434293947571746	0.8480761057395942	-1.947787280976752e-09	1.214367005256185e-07	-4.680276134375876e-08	1.569074392305537e-08	4.189375140966269e-08	1.161766264229967e-07	1.205737764408434e-08
0.01	0.05854767912104242	0.1026449340884481	0.9060799220909538	0.1267025726448691	-0.34127408646066	-0.2521204263624755	-0.2146212908636126	0.2053851638412996	0.205385163841301	-0.1144528563318393	-0.1727454830973066	0.09041163692350188	0.1107478247825541	0.01454144734196433	0.006788610419764784	-0.001688765004417473	0.002068394707774734	-0.002210038737358846	0.01308736076761014	-0.02471182913624127	0.04588973527696604	0.04588973527696665	0.008628447014621314	-0.001541995335719797	0.03347026606022895	0.008372447749963674	0.08245631980833806	-0.07288129608713115	-0.007555663655057153	-0.2317592559406104	0.1879770475148631	-0.03510356415094928	-0.01479663795858199	32.48529273221727	11.26464172035691	-4.026824638249836	-37.53613135653968	-447.5480678483819	-82.34150359794685	-26.25374920793987	1.453652593058118	0.6546721017883592	-0.1637225175558027	0.1840793451889721	-0.2103233430081018	1.319689699293316	-2.436831382586454	4.490312210587089	4.490312210586921	0.8532667486593292	-0.1103596050591131	3.268796129389866	0.8235137514366477	-3.151623792150655e-09	1.755814899306965e-07	-6.333214533145501e-08	2.117315478919654e-08	1.866226979760339e-08	1.40190362741577e-07	2.04333529458967e-08
0.02	0.05876482368094488	0.1027447234562178	0.906054787608834	0.1267338372333332	-0.3413068234677286	-0.2519249415421054	-0.2149880890823903	0.2060674686345234	0.2060674686345232	-0.1143244479599581	-0.1727675497140072	0.09090792486093333	0.1108720251587513	0.02884838268473219	0.01308764648794165	-0.003330318731671712	0.004194071454223919	-0.004320784966751971	0.02597650076889003	-0.04849264588870938	0.09032959322224943	0.09032959322224755	0.01701240138007286	-0.002828720219746053	0.06555665988611363	0.01641228117240296	0.07962491582648414	-0.0842531541650002	-0.006898179981038007	-0.2259351097277193	0.174520902818539	-0.02176051328529688	-0.01287011342896561	29.01705011651332	5.615629483030617	-2.59919991517851	-34.92296652024356	-447.6898835533885	-93.59498137769189	-26.25367014995358	1.396501016673866	0.6048453344557285	-0.1673816469227231	0.2666802316230469	-0.2175418082000728	1.237273640113852	-2.307132879756195	4.423826828994978	4.423826828994729	0.8208774447753114	-0.1780617776743247	3.157519500702887	0.781553240234715	-4.355460303324557e-09	2.297262793357745e-07	-7.986152931915126e-08	2.665556565533771e-08	-4.569211814455918e-09	1.642040990601574e-07	2.880932824770906e-08
0.03	0.05912332677180237	0.1029055275474446	0.9060133817670804	0.1267866935725184	-0.3413602751311554	-0.2516020529048852	-0.2155879297925459	0.2071871290255004	0.2071871290254989	-0.1141135625624172	-0.1728016814574809	0.09171878772178779	0.1110750888737062	0.04276577587821532	0.01903900833004261	-0.004950586396125051	0.006371854480648849	-0.006369169085195237	0.03854414651319352	-0.07131597025949442	0.1333603915280586	0.1333603915280553	0.02509013343035	-0.003974575984461477	0.09643818189920124	0.02414754441587959	0.0783616690206695	-0.07891282847357639	-0.006677312333632297	-0.2235180708791936	0.1711653614077584	-0.02497463120562634	-0.01191905032921483	27.68334358450154	7.149048873584706	-2.734020211679284	-33.61753318181675	-448.1109116631981	-90.05107785432692	-26.25337300488408	1.376389612165157	0.5851624482391693	-0.1593108504716743	0.1925256243780654	-0.1984449290915062	1.257966587646784	-2.246003333296575	4.206386518924074	4.206386518924051	0.790065731894369	-0.07940709082136015	3.026814560019022	0.7615487221442188	-6.226578126099853e-09	2.375536672101443e-07	-7.196672246702339e-08	2.867099178266147e-08	-2.319226035335635e-08	1.536983700018546e-07	2.983499303999717e-08
0.04	0.05961841002289052	0.1031248214249228	0.905955780943829	0.1268611673992126	-0.3414342022788514	-0.2511551965010104	-0.2164112179699209	0.2087298334370442	0.2087298334370435	-0.1138241309150268	-0.1728465836815934	0.09283313500445453	0.1113539123922438	0.05616441473088379	0.02478560373821771	-0.006569315031182352	0.008517568956107545	-0.008415881820641026	0.05077005409982435	-0.09318213933255586	0.1749383973358752	0.1749383973358732	0.03272165135024553	-0.004982816347225225	0.1262535442485818	0.03156424188895957	0.07709842221485126	-0.07357250278215041	-0.006456444686219692	-0.2211010320306697	0.1678098199969782	-0.0281887491259534	-0.01096798722946781	26.37163049676874	8.687352674598063	-2.879597106847851	-32.3980243210849	-448.1788961057081	-86.41360919619444	-26.25267380878154	1.292750148510939	0.5638920476705542	-0.1670738410435153	0.2602665214297994	-0.2172075316005771	1.168926008579318	-2.115701820211472	4.133268329396447	4.13326832939677	0.7316346186989882	-0.15053869728399	2.944287567961476	0.7178400861553804	-8.111454326433943e-09	2.444260571148089e-07	-6.356832405118782e-08	3.061493368856631e-08	-4.172028965363497e-08	1.424808993893892e-07	3.070910503827446e-08
0.05	0.06024499502665968	0.1034004232595374	0.9058819554370333	0.1269570441655547	-0.3415286477263154	-0.2505882334055131	-0.2174484140928006	0.2106812198465051	0.2106812198465039	-0.1134606943370405	-0.1729013645401825	0.09424018821828216	0.1117052341436331	0.06908483216448975	0.03028703889805596	-0.008197615067167579	0.01065390363430997	-0.01046434505905548	0.06256189721244995	-0.1141099293767902	0.2151024565896924	0.2151024565897005	0.03990737330286618	-0.005949336933351589	0.1549684341028283	0.03865483759575418	0.07542160493864893	-0.07230591330194319	-0.006082049396546867	-0.2179060814832399	0.1615431286692453	-0.02707333252102535	-0.009730983342848347	24.395674294216	8.363179428626067	-2.61577416498642	-30.72416927873712	-448.4751458952027	-86.62197274197199	-26.25141226964975	1.281525024344026	0.5361167458328113	-0.1609908895341135	0.1897343357953155	-0.1973571149190236	1.175230000193797	-2.059244216533902	3.922504379511166	3.922504379512483	0.7033286481673312	-0.06612113513100273	2.806796097342654	0.6978480143595067	-8.63048658457551e-09	2.544312042638285e-07	-6.698699871581645e-08	3.215237820387807e-08	-5.494028923390515e-08	1.459286238892721e-07	3.270455401669932e-08
0.06	0.06099875170147657	0.1037296089448889	0.905791790368946	0.1270741677576342	-0.3416433160851547	-0.2499051685713713	-0.2186904734401237	0.2130271527797308	0.2130271527797296	-0.1130271430066029	-0.1729650930838045	0.09592873161128951	0.1121260975923739	0.08159874894044054	0.03550237388558732	-0.009837227289478383	0.01276693410370655	-0.01246046409575577	0.07399040182866004	-0.1341547842212036	0.2538477020889817	0.2538477020889985	0.04674460184043609	-0.006772353353639661	0.1825515800845316	0.04547258135926902	0.07374478766243747	-0.0710393238217354	-0.005707654106870754	-0.2147111309358151	0.1552764373415109	-0.02595791591609718	-0.008493979456235321	22.44044534134969	8.04062713745072	-2.358206646827219	-29.13313461801636	-448.4532240420238	-86.75312357574279	-26.24933207301089	1.211450016979909	0.5066720132091732	-0.1693362783086307	0.2556056796686296	-0.2067386912577428	1.096258309296215	-1.939114780247263	3.849505578490878	3.849505578490897	0.6619359356888413	-0.1218378641163326	2.717938793452852	0.6632696974994224	-9.092009624098446e-09	2.645682569810315e-07	-7.090323435225409e-08	3.36727070395859e-08	-6.793679282596443e-08	1.499938302886222e-07	3.474721718376198e-08
